<svg xmlns="http://www.w3.org/2000/svg" data-name="Layer 1" viewBox="0 0 128 160" x="0px" y="0px"><title>Miscellaneous 42 solid </title><path d="M29,16a6,6,0,1,0,6-6A6,6,0,0,0,29,16Zm6-2a2,2,0,1,1-2,2A2,2,0,0,1,35,14Z"/><path d="M93,10a6,6,0,1,0,6,6A6,6,0,0,0,93,10Zm0,8a2,2,0,1,1,2-2A2,2,0,0,1,93,18Z"/><path d="M64,0A13,13,0,1,0,77,13,13,13,0,0,0,64,0Z"/><path d="M113,80a6,6,0,1,0-6-6A6,6,0,0,0,113,80Zm0-8a2,2,0,1,1-2,2A2,2,0,0,1,113,72Z"/><path d="M15,68a6,6,0,1,0,6,6A6,6,0,0,0,15,68Zm0,8a2,2,0,1,1,2-2A2,2,0,0,1,15,76Z"/><path d="M87.89,25.37a19.32,19.32,0,0,1,3.63,4.69c4.21.84,6.55,1.76,7.32,2.44l-.13.11,0,0-.19.13,0,0-.18.11c-1.27.71-4,1.59-8.43,2.35-1-6.34-5.68-10.34-13-11.1A16.86,16.86,0,0,1,72,28h2.17c4,0,10.66,1.06,11.72,7.84l-.5.06-.75.09a191.54,191.54,0,0,1-30.31.81q-2.86-.13-5.72-.34c-1.71-.12-3.49-.47-5.2-.47l-.75-.09-.5-.06C43.19,29.06,49.83,28,53.85,28H56a16.86,16.86,0,0,1-4.82-3.85c-7.34.76-12,4.76-13,11.1-4.44-.76-7.16-1.64-8.43-2.35l-.18-.11,0,0-.19-.13,0,0-.13-.11c.76-.68,3.1-1.6,7.32-2.44a19.32,19.32,0,0,1,3.63-4.69c-6.69.94-12.43,2.51-14.39,5.1A2,2,0,0,0,25,32v87.5c0,7.16,23.74,8.36,36.45,8.49h5.1c12.7-.13,36.45-1.33,36.45-8.49V32a2,2,0,0,0-.72-1.53C100.32,27.88,94.58,26.31,87.89,25.37ZM42,122.82c-1.46-.19-2.8-.39-4-.6V101a2,2,0,0,1,4,0ZM56,82H54v6a2,2,0,0,1-4,0V80a2,2,0,0,1,2-2h4a2,2,0,0,1,0,4Zm10,42H62V42a2,2,0,0,1,.28-1h3.43A2,2,0,0,1,66,42ZM78,88a2,2,0,0,1-4,0V82H72a2,2,0,0,1,0-4h4a2,2,0,0,1,2,2Zm12,34.22c-1.2.21-2.54.41-4,.6V101a2,2,0,0,1,4,0Z"/><text x="0" y="143" fill="#000000" font-size="5px" font-weight="bold" font-family="'Helvetica Neue', Helvetica, Arial-Unicode, Arial, Sans-serif">Created by priyanka</text><text x="0" y="148" fill="#000000" font-size="5px" font-weight="bold" font-family="'Helvetica Neue', Helvetica, Arial-Unicode, Arial, Sans-serif">from the Noun Project</text></svg>